<svg xmlns="http://www.w3.org/2000/svg" viewBox="0 0 245 161.34"><defs><style>.cls-1,.cls-16,.cls-17{fill:#fff;}.cls-2,.cls-3{fill:#aaa;}.cls-2{opacity:0.12;}.cls-3{opacity:0.5;}.cls-4{fill:#9fe791;}.cls-5{fill:#2bc3f7;}.cls-12,.cls-16,.cls-6{opacity:0.15;}.cls-7{fill:#32caf8;}.cls-8{fill:#e6f4ff;}.cls-13,.cls-9{fill:none;}.cls-9{stroke:#fff;stroke-width:3px;}.cls-13,.cls-17,.cls-9{stroke-miterlimit:10;}.cls-10{fill:#b3c9e8;}.cls-11{fill:#ffb82a;}.cls-12{fill:#6262a0;}.cls-13,.cls-17{stroke:#2e576d;stroke-linecap:round;stroke-width:4px;}.cls-14{fill:#25c83a;}.cls-15{fill:#ff5750;}.cls-18{fill:#8686ba;}.cls-19{fill:#ceeaff;}</style></defs><title>Asset 100</title><g id="Layer_2" data-name="Layer 2"><g id="Layer_1-2" data-name="Layer 1"><path class="cls-1" d="M215.79,79.93l.09,6a.63.63,0,0,0,1.25,0l-.09-6a.63.63,0,0,0-1.25,0Z"/><path class="cls-1" d="M211.58,69.36h4.92l-.62-.62v4.48a.63.63,0,0,0,1.25,0V68.74a.63.63,0,0,0-.62-.62h-4.92a.63.63,0,0,0,0,1.25Z"/><rect class="cls-2" x="44" y="21.45" width="201" height="74.8" rx="37.4" ry="37.4"/><rect class="cls-3" x="43.63" y="13.58" width="177.53" height="147.76" rx="9.71" ry="9.71"/><circle class="cls-4" cx="17.35" cy="126.06" r="3.77"/><rect class="cls-2" y="60.52" width="195" height="74.8" rx="37.4" ry="37.4"/><circle class="cls-5" cx="18.93" cy="22.09" r="3.77"/><g class="cls-6"><path class="cls-7" d="M231.7,130.2l-7.15,5.93a3,3,0,0,0,0,4.24,3.07,3.07,0,0,0,4.24,0l7.15-5.93a3,3,0,0,0,0-4.24,3.07,3.07,0,0,0-4.24,0Z"/><path class="cls-7" d="M235.33,136.74l-5.93-7.15a3,3,0,0,0-4.24,0,3.07,3.07,0,0,0,0,4.24l5.93,7.15a3,3,0,0,0,4.24,0,3.07,3.07,0,0,0,0-4.24Z"/></g><path class="cls-1" d="M199.2,30.61l.09,6.18a.63.63,0,0,0,1.25,0l-.09-6.18a.63.63,0,0,0-1.25,0Z"/><path class="cls-1" d="M194.85,19.7h5.07l-.62-.62v4.61a.63.63,0,0,0,1.25,0V19.08a.63.63,0,0,0-.62-.62h-5.07a.63.63,0,0,0,0,1.25Z"/><rect class="cls-8" x="28.57" y="3.58" width="180.1" height="147.76"/><path class="cls-1" d="M28.12,5.58V7.11a1.24,1.24,0,0,0,1.24,1.24H207.43a1.24,1.24,0,0,0,1.24-1.24h0a3.75,3.75,0,0,0-3.77-3.75l-175.54,1A1.24,1.24,0,0,0,28.12,5.58Z"/><path class="cls-9" d="M118.18,99.09"/><rect class="cls-10" x="28.06" y="125.35" width="179.15" height="26.02"/><polygon class="cls-11" points="35.88 41.17 82.3 41.17 76.15 31.94 42.04 31.94 35.88 41.17"/><polygon class="cls-12" points="82.29 41.19 128.71 41.19 122.55 31.95 88.44 31.95 82.29 41.19"/><line class="cls-13" x1="154" y1="2" x2="179.33" y2="2"/><path class="cls-13" d="M187.33,2H206a3,3,0,0,1,2.95,2.95V149.46a3,3,0,0,1-2.95,2.95H30.3a3,3,0,0,1-2.95-2.95V4.95A3,3,0,0,1,30.3,2h113"/><circle class="cls-14" cx="68.47" cy="20.96" r="4.22"/><circle class="cls-11" cx="54.77" cy="20.96" r="4.22"/><circle class="cls-15" cx="41.08" cy="20.96" r="4.22"/><path class="cls-16" d="M69,20.45a4.21,4.21,0,0,1,3.54,1.95,4.17,4.17,0,0,0,.18-1.16,4.22,4.22,0,1,0-7.76,2.27A4.2,4.2,0,0,1,69,20.45Z"/><path class="cls-16" d="M55.4,20.45a4.21,4.21,0,0,1,3.54,1.95,4.17,4.17,0,0,0,.18-1.16,4.22,4.22,0,1,0-7.76,2.27A4.2,4.2,0,0,1,55.4,20.45Z"/><path class="cls-16" d="M41.66,20.45a4.21,4.21,0,0,1,3.54,1.95,4.17,4.17,0,0,0,.18-1.16,4.22,4.22,0,1,0-7.76,2.27A4.2,4.2,0,0,1,41.66,20.45Z"/><path class="cls-17" d="M109.33,41.31H190a6.38,6.38,0,0,1,6.38,6.38v84.87a6.38,6.38,0,0,1-6.38,6.38H42.26a6.38,6.38,0,0,1-6.38-6.38V47.69a6.38,6.38,0,0,1,6.38-6.38H67.33"/><line class="cls-17" x1="77.33" y1="41.31" x2="98.67" y2="41.31"/><path class="cls-18" d="M111.71,84.06c-11,11-11,16.06-7.88,19.19S112,106.42,123,95.38s23.93-29,20.8-32.12S122.75,73,111.71,84.06Z"/><path class="cls-19" d="M82.63,116.35c3.61,3.61,17.75,4.63,24.61-2.23a11.18,11.18,0,0,0,1.85-2.47c-10.73-.32-16.39-3.89-19.19-6.64C88.67,108.62,87.48,113.14,82.63,116.35Z"/><path class="cls-18" d="M108.1,99C104.15,95,96.9,95.9,93,99.84A12.79,12.79,0,0,0,89.9,105c2.8,2.75,8.29,11.22,19.19,6.64C111.34,107.63,111.32,102.21,108.1,99Z"/><path class="cls-19" d="M89.9,105s6.5-1.23,9.6,3.33,9.6,3.31,9.6,3.31l-8.41,4.65-8.42-6.13Z"/></g></g></svg>